<?xml version="1.0" encoding="UTF-8" standalone="no"?>
<svg width="36" height="36" viewBox="0 0 36 36" version="1.1" xmlns="http://www.w3.org/2000/svg" xmlns:svg="http://www.w3.org/2000/svg">
  <path fill="#aab8c2" d="m 18,1.5 c -5.523,0 -10,4.477 -10,10 v 10 h 4 v -10 c 0,-3.313 2.686,-6 6,-6 3.314,0 6,2.687 6,6 v 10 h 4 v -10 C 28,5.977 23.523,1.5 18,1.5 Z"/>
  <path fill="#ebb12f" d="m 31,30.5 c 0,2.209 -1.791,4 -4,4 H 9 c -2.209,0 -4,-1.791 -4,-4 v -12 c 0,-2.209 1.791,-4 4,-4 h 18 c 2.209,0 4,1.791 4,4 z"/>
  <path fill="#7f6019" d="m 18.126953,19.486823 a 2.683075,2.683075 0 0 0 -1.46875,0.357422 2.683075,2.683075 0 0 0 -0.982422,3.664062 2.683075,2.683075 0 0 0 0.892578,0.919922 L 15.205078,29.51612 H 18 20.794922 l -1.363281,-5.082031 a 2.683075,2.683075 0 0 0 0.892578,-3.607422 2.683075,2.683075 0 0 0 -2.197266,-1.339844 z"/>
</svg>
